Coordinates
version=1
nRows=10
nColumns=46
inDegrees=yes

Units are S.I. units (second, meters, Newtons, ...)
Angles are in degrees.

endheader
time	pelvis_tilt	pelvis_list	pelvis_rotation	pelvis_tx	pelvis_ty	pelvis_tz	bb_angle	bb_tx	bb_ty	bb_tz	hip_flexion_r	hip_adduction_r	hip_rotation_r	knee_angle_r	knee_angle_r_beta	ankle_angle_r	subtalar_angle_r	mtp_angle_r	crank_angle_r	hip_flexion_l	hip_adduction_l	hip_rotation_l	knee_angle_l	knee_angle_l_beta	ankle_angle_l	subtalar_angle_l	mtp_angle_l	crank_angle_l	lumbar_extension	lumbar_bending	lumbar_rotation	arm_flex_r	arm_add_r	arm_rot_r	elbow_flex_r	pro_sup_r	wrist_flex_r	wrist_dev_r	arm_flex_l	arm_add_l	arm_rot_l	elbow_flex_l	pro_sup_l	wrist_flex_l	wrist_dev_l
      5.00000000	    -34.62268902	     -4.01419441	      9.45078311	      0.27865449	      1.02832094	     -0.21555069	      0.00000000	      0.50000000	      0.00000000	      0.25000000	     56.05239175	     -8.95573711	     -4.97026040	     66.76571765	      1.16528160	    -37.33819289	     -4.81212678	      0.00000000	      0.00000000	     86.12751418	     -2.61409902	      4.51896680	     79.54960627	      1.38840255	      4.51427729	      1.51500356	      0.00000000	      0.00000000	    -36.10895169	      9.05929341	    -19.44886103	     70.86033714	      6.39122971	     62.36569184	     29.22053207	     51.38696586	      0.00000000	      0.00000000	     42.35672869	    -53.41955794	     36.11389953	     90.75193833	     53.07981743	      0.00000000	      0.00000000
      5.00500000	    -34.57710240	     -3.71899628	      8.83096818	      0.27867504	      1.02829815	     -0.21622852	      0.00000000	      0.50000000	      0.00000000	      0.25000000	     57.34333086	     -8.88724677	     -4.10121325	     69.36184184	      1.21059252	    -37.04868659	     -4.96501496	      0.00000000	      0.00000000	     83.82168162	     -2.88034764	      4.06452824	     76.43370150	      1.33401975	      5.23627179	      0.86781501	      0.00000000	      0.00000000	    -36.23266756	      8.64308246	    -19.04575359	     71.18587328	      6.15772903	     63.03071302	     29.16243021	     51.51181561	      0.00000000	      0.00000000	     41.98453919	    -52.61959112	     35.45992988	     90.69507890	     52.98501322	      0.00000000	      0.00000000
      5.01000000	    -34.54668030	     -4.04459739	      8.19343242	      0.27892277	      1.02784397	     -0.21676084	      0.00000000	      0.50000000	      0.00000000	      0.25000000	     58.52278008	     -8.35189303	     -3.81932846	     71.76141564	      1.25247298	    -36.74846434	     -5.14750199	      0.00000000	      0.00000000	     81.73822362	     -3.32883710	      4.24765708	     73.37415600	      1.28062061	      5.73322608	      0.47474753	      0.00000000	      0.00000000	    -36.26208736	      8.82688885	    -18.27356275	     71.40311241	      6.04228807	     63.27546698	     29.17964793	     51.56313293	      0.00000000	      0.00000000	     41.61844741	    -52.40998724	     35.23916277	     90.58808837	     52.94303612	      0.00000000	      0.00000000
      5.01500000	    -34.47199664	     -3.51963139	      7.51924306	      0.27941512	      1.02735186	     -0.21760978	      0.00000000	      0.50000000	      0.00000000	      0.25000000	     59.80361179	     -8.49126484	     -2.90914148	     74.50779661	      1.30040637	    -35.76106755	     -5.29265923	      0.00000000	      0.00000000	     79.20127374	     -3.47773562	      3.52290793	     70.09769818	      1.22343563	      5.95615911	     -1.10349996	      0.00000000	      0.00000000	    -36.35773839	      8.29678637	    -18.33163550	     73.75039223	      3.84690938	     73.32250359	     30.94125162	     54.01767307	      0.00000000	      0.00000000	     38.33075655	    -50.18186181	     29.51084362	     90.94110909	     52.22683561	      0.00000000	      0.00000000
      5.02000000	    -34.32040743	     -3.32267261	      6.93514371	      0.27997832	      1.02667939	     -0.21839703	      0.00000000	      0.50000000	      0.00000000	      0.25000000	     60.96148865	     -8.46702523	     -2.31120428	     77.17465523	      1.34695183	    -34.68449638	     -5.25067985	      0.00000000	      0.00000000	     76.69722419	     -3.64234814	      3.14673367	     66.85633384	      1.16686315	      6.11782390	     -2.25080331	      0.00000000	      0.00000000	    -36.43567814	      8.01270813	    -17.82600235	     74.03038078	      3.50775818	     73.95872566	     30.91098881	     54.22648713	      0.00000000	      0.00000000	     38.02981823	    -49.32556372	     28.90279043	     90.51054981	     52.05172503	      0.00000000	      0.00000000
      5.02500000	    -34.21839841	     -3.18836853	      6.16002062	      0.28055715	      1.02546875	     -0.21892042	      0.00000000	      0.50000000	      0.00000000	      0.25000000	     62.14985886	     -8.16141167	     -1.74978232	     79.84590953	      1.39357402	    -33.36569295	     -5.92760327	      0.00000000	      0.00000000	     74.26884495	     -3.97628733	      2.85009121	     63.72499168	      1.11221092	      6.40949927	     -3.08138187	      0.00000000	      0.00000000	    -36.44846721	      7.63444860	    -17.20613007	     74.17923313	      3.17895707	     74.34261072	     31.04185557	     54.35679255	      0.00000000	      0.00000000	     37.66434076	    -48.68094746	     28.62400413	     90.43640043	     52.00118300	      0.00000000	      0.00000000
      5.03000000	    -34.07319924	     -3.14120813	      5.46285105	      0.28136986	      1.02423017	     -0.21959589	      0.00000000	      0.50000000	      0.00000000	      0.25000000	     63.24978177	     -7.93388756	     -1.27483595	     82.51932218	      1.44023387	    -31.57687804	     -5.90411053	      0.00000000	      0.00000000	     71.75883469	     -4.18242577	      2.66668760	     60.47736918	      1.05552922	      6.22782312	     -4.61272694	      0.00000000	      0.00000000	    -36.44709880	      7.47078554	    -16.29328939	     74.91173497	      1.55274557	     77.01940802	     32.98869442	     55.47517351	      0.00000000	      0.00000000	     36.94175122	    -46.79661491	     26.59414506	     89.78400891	     51.63069382	      0.00000000	      0.00000000
      5.03500000	    -33.87705753	     -3.07740715	      4.46401211	      0.28232283	      1.02271871	     -0.21928462	      0.00000000	      0.50000000	      0.00000000	      0.25000000	     64.31247332	     -7.32347041	     -0.72589227	     85.17345604	      1.48655724	    -29.64943859	     -6.50693342	      0.00000000	      0.00000000	     69.27343397	     -4.83479041	      2.30014898	     57.47513675	      1.00313037	      6.30508564	     -5.26782727	      0.00000000	      0.00000000	    -36.53773029	      7.02596939	    -15.52646341	     75.05759700	      1.33119445	     77.28704811	     33.06179649	     55.57545167	      0.00000000	      0.00000000	     36.45198211	    -46.36915033	     26.63926111	     89.83054058	     51.64185975	      0.00000000	      0.00000000
      5.04000000	    -33.59499467	     -2.89663287	      3.66806764	      0.28309909	      1.02104877	     -0.21937439	      0.00000000	      0.50000000	      0.00000000	      0.25000000	     65.34985700	     -7.04899695	     -0.14410183	     87.89804882	      1.53411036	    -27.50434965	     -6.53644513	      0.00000000	      0.00000000	     66.84380394	     -5.22498239	      1.83623885	     54.69967190	      0.95468937	      6.00168116	     -6.01793188	      0.00000000	      0.00000000	    -36.65452610	      6.58142168	    -14.87655965	     75.25180368	      0.92789463	     77.82259879	     33.37505921	     55.77838829	      0.00000000	      0.00000000	     36.15547065	    -45.73495313	     26.30574984	     89.75072270	     51.58979916	      0.00000000	      0.00000000
      5.04500000	    -33.36391856	     -2.91085924	      2.80994008	      0.28384809	      1.01931733	     -0.21951871	      0.00000000	      0.50000000	      0.00000000	      0.25000000	     66.40302915	     -6.59823039	      0.26887004	     90.52800028	      1.58001167	    -25.22087907	     -6.69272240	      0.00000000	      0.00000000	     64.59114801	     -5.77285766	      1.52147371	     52.13171553	      0.90987008	      5.76109537	     -6.37875644	      0.00000000	      0.00000000	    -36.74732334	      6.35058726	    -14.06674127	     75.47539734	      0.51411897	     78.33031280	     33.75790355	     55.97910171	      0.00000000	      0.00000000	     35.71656234	    -45.13311275	     25.98820749	     89.60126445	     51.53187442	      0.00000000	      0.00000000
